<svg width="140" height="98" viewBox="0 0 140 98" fill="none" xmlns="http://www.w3.org/2000/svg">
<path d="M98.4564 50.4806V37.9009C98.4564 32.1884 98.4564 29.3322 97.3447 27.1504C96.3668 25.2312 94.8064 23.6708 92.8872 22.6929C90.7053 21.5812 87.8491 21.5812 82.1367 21.5812H60.3771C54.6646 21.5812 51.8084 21.5812 49.6266 22.6929C47.7073 23.6708 46.147 25.2312 45.1691 27.1504C44.0574 29.3322 44.0574 32.1884 44.0574 37.9009V73.2602C44.0574 78.9727 44.0574 81.8289 45.1691 84.0107C46.147 85.93 47.7073 87.4903 49.6266 88.4682C51.8084 89.5799 54.6646 89.5799 60.3771 89.5799H69.5569" stroke="#00AFE3" stroke-width="4.74684" stroke-linecap="round" stroke-linejoin="round"/>
<path d="M44.0609 79.3791C41.4648 79.2911 40.8514 78.9915 39.4303 78.2674C37.5111 77.2895 35.9507 75.7291 34.9728 73.8099C33.8611 71.6281 33.8611 68.7718 33.8611 63.0594V27.7001C33.8611 21.9876 33.8611 19.1314 34.9728 16.9496C35.9507 15.0303 37.5111 13.47 39.4303 12.4921C41.6121 11.3804 44.4684 11.3804 50.1808 11.3804H71.9404C77.6528 11.3804 80.509 11.3804 82.6909 12.4921C84.6101 13.47 86.1705 15.0303 87.1484 16.9496C87.8295 18.2863 88.1579 19.2354 88.2601 21.5802" stroke="#00AFE3" stroke-width="4.74684" stroke-linecap="round" stroke-linejoin="round"/>
<path d="M78.052 52.1748H57.6523M64.4522 65.7746H57.6523M84.8518 38.5751H57.6523M105.251 89.5741L100.152 84.4742M103.551 75.9744C103.551 82.5464 98.2238 87.8742 91.6517 87.8742C85.0796 87.8742 79.7519 82.5464 79.7519 75.9744C79.7519 69.4023 85.0796 64.0746 91.6517 64.0746C98.2238 64.0746 103.551 69.4023 103.551 75.9744Z" stroke="#00AFE3" stroke-width="4.74684" stroke-linecap="round" stroke-linejoin="round"/>
</svg>
