<svg width="96" height="86" viewBox="0 0 96 86" fill="none" xmlns="http://www.w3.org/2000/svg">
<path d="M42.782 62.9756H18.5429M50.8618 46.8162H18.5429" stroke="#00AFE3" stroke-width="4.74684" stroke-linecap="round" stroke-linejoin="round"/>
<path d="M67.0142 63.7794C67.0142 70.567 67.0113 73.9608 65.6903 76.5533C64.5284 78.8338 62.6743 80.6878 60.3938 81.8498C57.8013 83.1707 54.4075 83.1707 47.6199 83.1707H21.7648C14.9772 83.1707 11.5834 83.1707 8.99089 81.8498C6.71045 80.6878 4.85639 78.8338 3.69444 76.5533C2.37349 73.9608 2.37349 70.567 2.37349 63.7794V34.6448C2.37349 31.6805 2.37348 30.1983 2.70835 28.8035C3.00524 27.5669 3.49493 26.3847 4.15943 25.3003C4.90892 24.0773 5.95698 23.0292 8.05308 20.9331L20.9331 8.05312C23.0292 5.95702 24.0772 4.90897 25.3003 4.15947C26.3846 3.49497 27.5669 3.00529 28.8035 2.7084C30.1983 2.37354 31.6805 2.37354 34.6448 2.37354H47.6199C54.4075 2.37354 57.8013 2.37354 60.3938 3.69449C62.6743 4.85643 64.5284 6.71049 65.6903 8.99094C67.0113 11.5835 67.0113 18.5127 67.0113 25.3003M26.6127 3.46212V20.1489C26.6127 22.4114 26.6126 23.5427 26.1723 24.4069C25.785 25.167 25.167 25.7851 24.4068 26.1724C23.5427 26.6127 22.4114 26.6127 20.1489 26.6127H3.46207" stroke="#00AFE3" stroke-width="4.74684" stroke-linecap="round" stroke-linejoin="round"/>
<path d="M45.6631 62.479L58.7505 59.0841C59.5876 58.8669 60.0062 58.7583 60.4042 58.5997C60.7578 58.4587 61.099 58.2885 61.4242 58.0906C61.7903 57.8679 62.1287 57.5987 62.8055 57.0603L91.1933 34.4759C93.9732 32.2643 94.4339 28.2179 92.2223 25.438C90.0107 22.6582 85.9643 22.1975 83.1845 24.409L54.7966 46.9934C54.1199 47.5318 53.7815 47.801 53.4821 48.1077C53.2163 48.3801 52.9736 48.6743 52.7568 48.9871C52.5127 49.3394 52.3128 49.7228 51.9131 50.4897L45.6631 62.479ZM45.6631 62.479L51.6899 50.9179C52.1212 50.0906 52.3368 49.677 52.6447 49.5113C52.9139 49.3666 53.2299 49.3362 53.5217 49.4271C53.8555 49.5311 54.1459 49.8962 54.7268 50.6263L59.25 56.3118C59.8308 57.0418 60.1212 57.4069 60.1475 57.7556C60.1705 58.0603 60.0699 58.3614 59.8683 58.5911C59.6377 58.8539 59.1862 58.9711 58.2831 59.2053L45.6631 62.479Z" stroke="#00AFE3" stroke-width="4.74684" stroke-linecap="round" stroke-linejoin="round"/>
</svg>
