<svg width="156" height="29" viewBox="0 0 156 29" fill="none" xmlns="http://www.w3.org/2000/svg">
<path d="M11.5916 28.8287C17.6254 22.7991 23.6425 17.425 23.0579 10.6396C22.5443 4.66009 17.5127 -0.0208087 11.5081 6.95696e-05C5.14857 0.0167721 0 5.18204 0 11.5499C0 17.9136 5.74569 23.0747 11.5039 28.8287C11.529 28.8538 11.5707 28.8538 11.5916 28.8287Z" fill="url(#paint0_linear_119_8)"/>
<path d="M11.5394 16.9744C14.512 16.9744 16.9218 15.9294 16.9218 14.6402C16.9218 13.3511 14.512 12.3061 11.5394 12.3061C8.56677 12.3061 6.15698 13.3511 6.15698 14.6402C6.15698 15.9294 8.56677 16.9744 11.5394 16.9744Z" fill="white"/>
<path d="M11.5938 10.7944C13.5125 10.7944 15.0679 9.23898 15.0679 7.32027C15.0679 5.40156 13.5125 3.84614 11.5938 3.84614C9.67504 3.84614 8.11961 5.40156 8.11961 7.32027C8.11961 9.23898 9.67504 10.7944 11.5938 10.7944Z" fill="white"/>
<path d="M28.7371 1.69479H34.0025V26.7904H28.7371V1.69479Z" fill="#253238"/>
<path d="M36.4373 18.3456C36.4373 13.0467 40.2705 9.35541 45.369 9.35541C50.434 9.35541 54.3007 13.0509 54.3007 18.3456C54.3007 23.6445 50.434 27.3357 45.369 27.3357C40.2705 27.3357 36.4373 23.6403 36.4373 18.3456ZM49.3316 18.3456C49.3316 15.836 47.7992 13.9528 45.3648 13.9528C42.9304 13.9528 41.3979 15.8694 41.3979 18.3456C41.3979 20.8217 42.9304 22.7383 45.3648 22.7383C47.7992 22.7383 49.3316 20.8175 49.3316 18.3456Z" fill="#253238"/>
<path d="M72.5916 21.899C71.46 25.4191 68.1612 27.3357 64.5618 27.3357C59.4968 27.3357 55.5967 23.6403 55.5967 18.3456C55.5967 13.0467 59.4968 9.35541 64.4282 9.35541C68.0276 9.35541 71.1927 11.272 72.3243 14.7921L68.0276 16.4999C67.3261 14.7211 65.9273 13.957 64.495 13.957C62.2276 13.957 60.5616 15.8402 60.5616 18.3497C60.5616 20.8593 62.2276 22.7425 64.6286 22.7425C66.0609 22.7425 67.5933 21.9742 68.2948 20.1996L72.5916 21.899Z" fill="#253238"/>
<path d="M92.6127 9.92242V26.792H87.8148V24.3534C86.5496 26.1657 84.5161 27.3516 81.7852 27.3516C76.8538 27.3516 73.5216 23.6561 73.5216 18.3614C73.5216 13.1001 76.8538 9.37123 81.7852 9.37123C84.5161 9.37123 86.5496 10.5571 87.8148 12.3693V9.93077H92.6127V9.92242ZM87.3472 18.3572C87.3472 15.7433 85.5475 13.8266 83.017 13.8266C80.4824 13.8266 78.6827 15.7433 78.6827 18.3572C78.6827 21.0046 80.4824 22.8878 83.017 22.8878C85.5475 22.8878 87.3472 20.9712 87.3472 18.3572Z" fill="#253238"/>
<path d="M96.179 1.69479H101.444V26.7904H96.179V1.69479Z" fill="#253238"/>
<path d="M104.504 4.37913C104.504 2.60031 105.736 1.10125 107.603 1.10125C109.469 1.10125 110.701 2.60031 110.701 4.37913C110.701 6.15796 109.469 7.61943 107.603 7.61943C105.736 7.61943 104.504 6.15378 104.504 4.37913ZM105.005 9.92021H110.238V26.7898H105.005V9.92021Z" fill="#253238"/>
<path d="M112.569 21.6235L116.636 20.7173C117.204 22.3542 118.135 23.3647 119.901 23.3647C121.333 23.3647 122.335 22.8427 122.335 21.8322C122.335 20.8217 121.304 20.4376 119.738 20.2288L118.974 20.1244C115.441 19.6734 113.274 17.7902 113.274 14.7587C113.274 11.3096 115.938 9.35541 119.972 9.35541C123.371 9.35541 126.235 10.7501 127.004 14.5499L122.97 15.4226C122.569 14.0655 121.671 13.3682 120.306 13.3682C119.308 13.3682 118.273 13.7524 118.273 14.7629C118.273 15.9112 119.772 16.3329 121.371 16.5041L122.239 16.6085C125.438 16.9551 127.338 18.9427 127.338 21.803C127.338 25.6697 123.805 27.3441 120.072 27.3441C116.001 27.3399 113.203 25.3189 112.569 21.6235Z" fill="#253238"/>
<path d="M140.498 14.6565H136.665V26.7868H131.567V14.6565H128.301V9.91716H131.567V4.48047H136.665V9.91716H140.498V14.6565Z" fill="#253238"/>
<path d="M141.233 21.6235L145.3 20.7173C145.868 22.3542 146.799 23.3647 148.565 23.3647C149.997 23.3647 150.999 22.8427 150.999 21.8322C150.999 20.8217 149.968 20.4376 148.402 20.2288L147.638 20.1244C144.105 19.6734 141.938 17.7902 141.938 14.7587C141.938 11.3096 144.602 9.35541 148.636 9.35541C152.035 9.35541 154.899 10.7501 155.668 14.5499L151.634 15.4226C151.233 14.0655 150.335 13.3682 148.97 13.3682C147.972 13.3682 146.937 13.7524 146.937 14.7629C146.937 15.9112 148.436 16.3329 150.035 16.5041L150.903 16.6085C154.102 16.9551 156.002 18.9427 156.002 21.803C156.002 25.6697 152.469 27.3441 148.736 27.3441C144.665 27.3399 141.867 25.3189 141.233 21.6235Z" fill="#253238"/>
<defs>
<linearGradient id="paint0_linear_119_8" x1="2.40985" y1="18.8095" x2="22.3854" y2="7.27655" gradientUnits="userSpaceOnUse">
<stop offset="2.49201e-07" stop-color="#2E81C4"/>
<stop offset="0.107" stop-color="#308FCD"/>
<stop offset="0.3876" stop-color="#36B1E3"/>
<stop offset="0.5231" stop-color="#3AC0EC"/>
</linearGradient>
</defs>
</svg>
