<svg width="140" height="98" viewBox="0 0 140 98" fill="none" xmlns="http://www.w3.org/2000/svg">
<path d="M108.535 80.6625V73.0201C108.535 65.898 103.664 59.9136 97.0711 58.2168M83.6969 12.9919C89.2985 15.2594 93.2499 20.7511 93.2499 27.1657C93.2499 33.5803 89.2985 39.072 83.6969 41.3394M89.4287 80.6625C89.4287 73.5407 89.4287 69.9798 88.2652 67.1709C86.7139 63.4256 83.7383 60.4501 79.9931 58.8988C77.1842 57.7353 73.6233 57.7353 66.5015 57.7353H55.0379C47.916 57.7353 44.3551 57.7353 41.5462 58.8988C37.801 60.4501 34.8255 63.4256 33.2741 67.1709C32.1107 69.9798 32.1107 73.5407 32.1107 80.6625M76.0545 27.1657C76.0545 35.6072 69.2112 42.4505 60.7697 42.4505C52.3281 42.4505 45.4849 35.6072 45.4849 27.1657C45.4849 18.7241 52.3281 11.8809 60.7697 11.8809C69.2112 11.8809 76.0545 18.7241 76.0545 27.1657Z" stroke="#00AFE3" stroke-width="4.74684" stroke-linecap="round" stroke-linejoin="round"/>
</svg>
