<svg width="17" height="18" viewBox="0 0 17 18" fill="none" xmlns="http://www.w3.org/2000/svg">
<path d="M8.35727 12C5.1872 12 2.36807 13.5306 0.573267 15.906C0.186977 16.4172 -0.00616769 16.6728 0.000150108 17.0183C0.00503119 17.2852 0.172633 17.6219 0.382639 17.7867C0.65446 18 1.03114 18 1.7845 18H14.93C15.6834 18 16.0601 18 16.3319 17.7867C16.5419 17.6219 16.7095 17.2852 16.7144 17.0183C16.7207 16.6728 16.5276 16.4172 16.1413 15.906C14.3465 13.5306 11.5273 12 8.35727 12Z" fill="white"/>
<path d="M8.35727 9C10.8426 9 12.8573 6.98528 12.8573 4.5C12.8573 2.01472 10.8426 0 8.35727 0C5.87199 0 3.85727 2.01472 3.85727 4.5C3.85727 6.98528 5.87199 9 8.35727 9Z" fill="white"/>
</svg>
